<svg width="600" height="600" viewBox="0 0 600 600" fill="none" xmlns="http://www.w3.org/2000/svg">
<rect x="150" y="150" width="300" height="300" rx="40" fill="#6EC6FF" stroke="#3A8DFF" stroke-width="8"/>

<rect x="80" y="100" width="80" height="40" rx="10" fill="#333333" stroke="#000000" stroke-width="6"/>
<rect x="80" y="460" width="80" height="40" rx="10" fill="#333333" stroke="#000000" stroke-width="6"/>
<rect x="440" y="100" width="80" height="40" rx="10" fill="#333333" stroke="#000000" stroke-width="6"/>
<rect x="440" y="460" width="80" height="40" rx="10" fill="#333333" stroke="#000000" stroke-width="6"/>

<rect x="150" y="110" width="10" height="20" rx="5" fill="#3A8DFF"/>
<rect x="150" y="470" width="10" height="20" rx="5" fill="#3A8DFF"/>
<rect x="440" y="110" width="10" height="20" rx="5" fill="#3A8DFF"/>
<rect x="440" y="470" width="10" height="20" rx="5" fill="#3A8DFF"/>

<path d="M150 150 C120 150 100 170 100 200 L100 400 C100 430 120 450 150 450 L450 450 C480 450 500 430 500 400 L500 200 C500 170 480 150 450 150 L150 150 Z" fill="none" stroke="#000000" stroke-width="8"/>

<rect x="170" y="170" width="100" height="60" rx="10" fill="#FFE58F" stroke="#000000" stroke-width="4"/>
<rect x="330" y="170" width="100" height="60" rx="10" fill="#FFE58F" stroke="#000000" stroke-width="4"/>
<line x1="220" y1="170" x2="220" y2="230" stroke="#000000" stroke-width="2"/>
<line x1="380" y1="170" x2="380" y2="230" stroke="#000000" stroke-width="2"/>

<circle cx="200" cy="300" r="25" fill="#FF5252" stroke="#000000" stroke-width="4"/>
<circle cx="200" cy="300" r="10" fill="#FFFFFF"/>
<circle cx="200" cy="300" r="5" fill="#FF5252"/>

<circle cx="290" cy="300" r="20" fill="#4CAF50" stroke="#000000" stroke-width="4"/>
<circle cx="390" cy="300" r="20" fill="#FFC107" stroke="#000000" stroke-width="4"/>

<circle cx="200" cy="400" r="15" fill="#FFEB3B" stroke="#000000" stroke-width="3"/>
<circle cx="300" cy="400" r="15" fill="#FFEB3B" stroke="#000000" stroke-width="3"/>
<circle cx="400" cy="400" r="15" fill="#FFEB3B" stroke="#000000" stroke-width="3"/>

<rect x="300" y="240" width="5" height="40" fill="#888888" stroke="#000000" stroke-width="2"/>
<circle cx="302.5" cy="235" r="5" fill="#888888" stroke="#000000" stroke-width="2"/>

</svg>