<svg xmlns="http://www.w3.org/2000/svg" xmlns:xlink="http://www.w3.org/1999/xlink" width="48" zoomAndPan="magnify" viewBox="0 0 36 36.000001" height="48" preserveAspectRatio="xMidYMid meet" version="1.0"><defs><clipPath id="d064dcd1be"><path d="M 16.871094 20.414062 L 17.21875 20.414062 L 17.21875 20.6875 L 16.871094 20.6875 Z M 16.871094 20.414062 " clip-rule="nonzero"/></clipPath><clipPath id="05fe5f021f"><path d="M 17.199219 20.578125 C 16.539062 20.871094 17.125 20.433594 17.125 20.433594 " clip-rule="nonzero"/></clipPath><clipPath id="b02d7f2d24"><path d="M 0.871094 0.414062 L 1.21875 0.414062 L 1.21875 0.6875 L 0.871094 0.6875 Z M 0.871094 0.414062 " clip-rule="nonzero"/></clipPath><clipPath id="c7716929e0"><path d="M 1.199219 0.578125 C 0.539062 0.871094 1.125 0.433594 1.125 0.433594 " clip-rule="nonzero"/></clipPath><clipPath id="3384762d6d"><rect x="0" width="2" y="0" height="1"/></clipPath><clipPath id="cad7fdc1ad"><path d="M 15.339844 22.675781 L 15.683594 22.675781 L 15.683594 22.949219 L 15.339844 22.949219 Z M 15.339844 22.675781 " clip-rule="nonzero"/></clipPath><clipPath id="9140943af9"><path d="M 15.664062 22.839844 C 15.007812 23.132812 15.59375 22.695312 15.59375 22.695312 " clip-rule="nonzero"/></clipPath><clipPath id="522e500cc1"><path d="M 0.339844 0.675781 L 0.664062 0.675781 L 0.664062 0.949219 L 0.339844 0.949219 Z M 0.339844 0.675781 " clip-rule="nonzero"/></clipPath><clipPath id="87ab302108"><path d="M 0.664062 0.839844 C 0.0078125 1.132812 0.59375 0.695312 0.59375 0.695312 " clip-rule="nonzero"/></clipPath><clipPath id="bcf57d619f"><rect x="0" width="1" y="0" height="1"/></clipPath><clipPath id="3aff031ee9"><path d="M 0.488281 17.332031 L 35.511719 17.332031 L 35.511719 31.195312 L 0.488281 31.195312 Z M 0.488281 17.332031 " clip-rule="nonzero"/></clipPath></defs><g clip-path="url(#d064dcd1be)"><g clip-path="url(#05fe5f021f)"><g transform="matrix(1, 0, 0, 1, 16, 20)"><g clip-path="url(#3384762d6d)"><g clip-path="url(#b02d7f2d24)"><g clip-path="url(#c7716929e0)"><rect x="-23.92" width="51.84" fill="#ffffff" height="51.840001" y="-27.92" fill-opacity="1"/></g></g></g></g></g></g><g clip-path="url(#cad7fdc1ad)"><g clip-path="url(#9140943af9)"><g transform="matrix(1, 0, 0, 1, 15, 22)"><g clip-path="url(#bcf57d619f)"><g clip-path="url(#522e500cc1)"><g clip-path="url(#87ab302108)"><rect x="-22.92" width="51.84" fill="#ffffff" height="51.840001" y="-29.92" fill-opacity="1"/></g></g></g></g></g></g><g clip-path="url(#3aff031ee9)"><path fill="#ffffff" d="M 23.273438 24.546875 L 22.800781 23.789062 L 20.832031 20.65625 C 20.804688 20.613281 20.777344 20.574219 20.753906 20.53125 C 20.269531 19.765625 20.777344 18.796875 21.679688 18.757812 C 22.625 18.714844 23.574219 18.675781 24.523438 18.632812 C 25.628906 18.585938 26.734375 18.539062 27.835938 18.488281 C 27.941406 18.484375 28.046875 18.488281 28.152344 18.496094 C 30 18.652344 31.847656 18.808594 33.695312 18.96875 C 33.863281 18.980469 34.035156 18.996094 34.203125 19.015625 C 35.027344 19.09375 35.5 20 35.082031 20.714844 C 34.820312 21.167969 34.53125 21.609375 34.253906 22.054688 C 33.65625 23.011719 33.058594 23.972656 32.460938 24.929688 L 30.574219 27.957031 C 30.09375 28.726562 29.609375 29.5 29.128906 30.269531 C 29.078125 30.355469 29.023438 30.441406 28.96875 30.523438 C 28.515625 31.25 27.464844 31.242188 27.019531 30.511719 C 26.609375 29.839844 26.1875 29.179688 25.769531 28.515625 C 25.75 28.488281 25.726562 28.460938 25.703125 28.425781 C 25.660156 28.445312 25.617188 28.460938 25.578125 28.480469 C 24.863281 28.835938 24.152344 29.203125 23.429688 29.539062 C 22.058594 30.179688 20.644531 30.679688 19.152344 30.945312 C 17.9375 31.15625 16.71875 31.203125 15.492188 31.078125 C 13.871094 30.917969 12.324219 30.488281 10.824219 29.855469 C 9.820312 29.429688 8.878906 28.902344 7.976562 28.300781 C 7.445312 27.949219 6.917969 27.59375 6.40625 27.222656 C 5.824219 26.796875 5.269531 26.339844 4.742188 25.847656 C 4.328125 25.457031 3.910156 25.066406 3.507812 24.667969 C 2.878906 24.039062 2.308594 23.367188 1.789062 22.648438 C 1.582031 22.359375 1.351562 22.089844 1.132812 21.8125 C 0.941406 21.566406 0.765625 21.3125 0.664062 21.011719 C 0.5 20.519531 0.582031 20.066406 0.882812 19.648438 C 1.050781 19.417969 1.28125 19.246094 1.507812 19.070312 C 2.191406 18.554688 2.90625 18.089844 3.679688 17.71875 C 3.855469 17.632812 4.035156 17.558594 4.214844 17.488281 C 4.441406 17.394531 4.675781 17.347656 4.914062 17.34375 C 5.421875 17.332031 5.796875 17.5625 6.113281 17.925781 C 6.410156 18.265625 6.625 18.664062 6.851562 19.050781 C 7.40625 19.988281 8.089844 20.816406 8.902344 21.539062 C 10.347656 22.828125 11.988281 23.773438 13.835938 24.359375 C 14.933594 24.707031 16.050781 24.972656 17.179688 25.195312 C 17.773438 25.316406 18.371094 25.410156 18.972656 25.472656 C 20.332031 25.609375 21.621094 25.363281 22.84375 24.765625 C 22.980469 24.699219 23.117188 24.625 23.273438 24.546875 Z M 23.273438 24.546875 " fill-opacity="1" fill-rule="nonzero"/></g></svg>