<svg xmlns="http://www.w3.org/2000/svg" xmlns:xlink="http://www.w3.org/1999/xlink" width="48" zoomAndPan="magnify" viewBox="0 0 36 36.000001" height="48" preserveAspectRatio="xMidYMid meet" version="1.0"><defs><clipPath id="041bd3bd95"><path d="M 16.871094 20.414062 L 17.21875 20.414062 L 17.21875 20.6875 L 16.871094 20.6875 Z M 16.871094 20.414062 " clip-rule="nonzero"/></clipPath><clipPath id="ec0686b330"><path d="M 17.199219 20.578125 C 16.539062 20.871094 17.125 20.433594 17.125 20.433594 " clip-rule="nonzero"/></clipPath><clipPath id="5bbf0911a8"><path d="M 0.871094 0.414062 L 1.21875 0.414062 L 1.21875 0.6875 L 0.871094 0.6875 Z M 0.871094 0.414062 " clip-rule="nonzero"/></clipPath><clipPath id="363ba0ea0d"><path d="M 1.199219 0.578125 C 0.539062 0.871094 1.125 0.433594 1.125 0.433594 " clip-rule="nonzero"/></clipPath><clipPath id="1b92893aa3"><rect x="0" width="2" y="0" height="1"/></clipPath><clipPath id="3030da380c"><path d="M 15.339844 22.675781 L 15.683594 22.675781 L 15.683594 22.949219 L 15.339844 22.949219 Z M 15.339844 22.675781 " clip-rule="nonzero"/></clipPath><clipPath id="bb68ba1449"><path d="M 15.664062 22.839844 C 15.007812 23.132812 15.59375 22.695312 15.59375 22.695312 " clip-rule="nonzero"/></clipPath><clipPath id="d57f6733b3"><path d="M 0.339844 0.675781 L 0.664062 0.675781 L 0.664062 0.949219 L 0.339844 0.949219 Z M 0.339844 0.675781 " clip-rule="nonzero"/></clipPath><clipPath id="28509f4f56"><path d="M 0.664062 0.839844 C 0.0078125 1.132812 0.59375 0.695312 0.59375 0.695312 " clip-rule="nonzero"/></clipPath><clipPath id="8b1df4c502"><rect x="0" width="1" y="0" height="1"/></clipPath><clipPath id="db808c9989"><path d="M 0.808594 10.734375 L 35.511719 10.734375 L 35.511719 34.816406 L 0.808594 34.816406 Z M 0.808594 10.734375 " clip-rule="nonzero"/></clipPath></defs><g clip-path="url(#041bd3bd95)"><g clip-path="url(#ec0686b330)"><g transform="matrix(1, 0, 0, 1, 16, 20)"><g clip-path="url(#1b92893aa3)"><g clip-path="url(#5bbf0911a8)"><g clip-path="url(#363ba0ea0d)"><rect x="-23.92" width="51.84" fill="#ffffff" height="51.840001" y="-27.92" fill-opacity="1"/></g></g></g></g></g></g><g clip-path="url(#3030da380c)"><g clip-path="url(#bb68ba1449)"><g transform="matrix(1, 0, 0, 1, 15, 22)"><g clip-path="url(#8b1df4c502)"><g clip-path="url(#d57f6733b3)"><g clip-path="url(#28509f4f56)"><rect x="-22.92" width="51.84" fill="#ffffff" height="51.840001" y="-29.92" fill-opacity="1"/></g></g></g></g></g></g><g clip-path="url(#db808c9989)"><path fill="#ffffff" d="M 21.699219 29.128906 C 21.601562 29.136719 21.515625 29.148438 21.425781 29.152344 L 19.042969 29.308594 C 18.027344 29.375 17.011719 29.429688 16 29.511719 C 15.179688 29.578125 14.355469 29.671875 13.535156 29.769531 C 12.96875 29.839844 12.402344 29.9375 11.835938 30.015625 C 11.1875 30.109375 10.539062 30.199219 9.890625 30.292969 C 9.21875 30.390625 8.546875 30.488281 7.875 30.589844 C 6.730469 30.753906 5.605469 31.023438 4.472656 31.261719 C 4.105469 31.339844 3.738281 31.4375 3.371094 31.515625 C 3.023438 31.582031 2.675781 31.574219 2.332031 31.484375 C 2.316406 31.480469 2.300781 31.476562 2.28125 31.472656 C 1.78125 31.363281 1.089844 30.644531 1.128906 29.96875 C 1.144531 29.714844 1.171875 29.464844 1.210938 29.214844 C 1.296875 28.671875 1.375 28.128906 1.449219 27.585938 C 1.496094 27.265625 1.519531 26.9375 1.574219 26.617188 C 1.664062 26.046875 1.636719 25.476562 1.519531 24.910156 C 1.363281 24.164062 1.285156 23.40625 1.214844 22.648438 C 1.140625 21.890625 1.054688 21.132812 0.910156 20.386719 C 0.847656 20.042969 0.808594 19.699219 0.847656 19.347656 C 0.890625 18.859375 1.097656 18.453125 1.464844 18.128906 C 1.816406 17.808594 2.238281 17.640625 2.707031 17.574219 C 2.941406 17.542969 3.175781 17.523438 3.410156 17.511719 C 4.902344 17.445312 6.398438 17.378906 7.890625 17.320312 C 8.867188 17.277344 9.847656 17.253906 10.828125 17.214844 C 11.808594 17.175781 12.789062 17.125 13.765625 17.085938 C 15.101562 17.035156 16.433594 16.984375 17.765625 16.949219 C 18.6875 16.921875 19.609375 16.914062 20.53125 16.898438 C 20.625 16.898438 20.71875 16.898438 20.816406 16.898438 C 20.824219 16.871094 20.828125 16.84375 20.832031 16.8125 C 20.769531 15.941406 20.707031 15.070312 20.644531 14.199219 C 20.609375 13.679688 20.5625 13.164062 20.539062 12.640625 C 20.519531 12.15625 20.722656 11.761719 21.121094 11.472656 C 21.1875 11.425781 21.253906 11.371094 21.3125 11.316406 C 21.847656 10.777344 22.613281 10.738281 23.199219 11.226562 C 23.753906 11.695312 24.308594 12.164062 24.863281 12.632812 C 28.191406 15.4375 31.519531 18.242188 34.851562 21.046875 C 35.445312 21.546875 35.507812 22.300781 35.199219 22.8125 C 35.136719 22.914062 35.0625 23.007812 34.980469 23.09375 C 32.15625 26.117188 29.324219 29.140625 26.492188 32.160156 C 25.792969 32.910156 25.089844 33.660156 24.386719 34.410156 C 23.859375 34.972656 23.035156 35.019531 22.476562 34.523438 C 22.195312 34.269531 22.050781 33.949219 22.023438 33.570312 C 21.949219 32.511719 21.875 31.453125 21.800781 30.390625 C 21.773438 30.019531 21.746094 29.648438 21.722656 29.277344 C 21.71875 29.230469 21.707031 29.1875 21.699219 29.128906 Z M 21.699219 29.128906 " fill-opacity="1" fill-rule="nonzero"/></g></svg>