<svg xmlns="http://www.w3.org/2000/svg" xmlns:xlink="http://www.w3.org/1999/xlink" width="48" zoomAndPan="magnify" viewBox="0 0 36 36.000001" height="48" preserveAspectRatio="xMidYMid meet" version="1.0"><defs><clipPath id="423ad95cb8"><path d="M 16.871094 20.414062 L 17.21875 20.414062 L 17.21875 20.6875 L 16.871094 20.6875 Z M 16.871094 20.414062 " clip-rule="nonzero"/></clipPath><clipPath id="4515d1cce1"><path d="M 17.199219 20.578125 C 16.539062 20.871094 17.125 20.433594 17.125 20.433594 " clip-rule="nonzero"/></clipPath><clipPath id="1db194f993"><path d="M 0.871094 0.414062 L 1.21875 0.414062 L 1.21875 0.6875 L 0.871094 0.6875 Z M 0.871094 0.414062 " clip-rule="nonzero"/></clipPath><clipPath id="27d5dfea6a"><path d="M 1.199219 0.578125 C 0.539062 0.871094 1.125 0.433594 1.125 0.433594 " clip-rule="nonzero"/></clipPath><clipPath id="56df4992bc"><rect x="0" width="2" y="0" height="1"/></clipPath><clipPath id="5089c85a2a"><path d="M 15.339844 22.675781 L 15.683594 22.675781 L 15.683594 22.949219 L 15.339844 22.949219 Z M 15.339844 22.675781 " clip-rule="nonzero"/></clipPath><clipPath id="ac69900695"><path d="M 15.664062 22.839844 C 15.007812 23.132812 15.59375 22.695312 15.59375 22.695312 " clip-rule="nonzero"/></clipPath><clipPath id="96fc982321"><path d="M 0.339844 0.675781 L 0.664062 0.675781 L 0.664062 0.949219 L 0.339844 0.949219 Z M 0.339844 0.675781 " clip-rule="nonzero"/></clipPath><clipPath id="2b6f9c3fd0"><path d="M 0.664062 0.839844 C 0.0078125 1.132812 0.59375 0.695312 0.59375 0.695312 " clip-rule="nonzero"/></clipPath><clipPath id="eecb40c183"><rect x="0" width="1" y="0" height="1"/></clipPath><clipPath id="c1969d1ad5"><path d="M 6 8.902344 L 31.5 8.902344 L 31.5 34.441406 L 6 34.441406 Z M 6 8.902344 " clip-rule="nonzero"/></clipPath></defs><g clip-path="url(#423ad95cb8)"><g clip-path="url(#4515d1cce1)"><g transform="matrix(1, 0, 0, 1, 16, 20)"><g clip-path="url(#56df4992bc)"><g clip-path="url(#1db194f993)"><g clip-path="url(#27d5dfea6a)"><rect x="-23.92" width="51.84" fill="#ffffff" height="51.840001" y="-27.92" fill-opacity="1"/></g></g></g></g></g></g><g clip-path="url(#5089c85a2a)"><g clip-path="url(#ac69900695)"><g transform="matrix(1, 0, 0, 1, 15, 22)"><g clip-path="url(#eecb40c183)"><g clip-path="url(#96fc982321)"><g clip-path="url(#2b6f9c3fd0)"><rect x="-22.92" width="51.84" fill="#ffffff" height="51.840001" y="-29.92" fill-opacity="1"/></g></g></g></g></g></g><g clip-path="url(#c1969d1ad5)"><path fill="#ffffff" d="M 18.554688 8.902344 C 15.070312 8.902344 11.867188 10.292969 9.539062 12.648438 L 7.125 10.914062 C 6.554688 10.503906 6.085938 10.746094 6.085938 11.449219 L 6.078125 20.363281 C 6.078125 21.066406 6.621094 21.457031 7.285156 21.230469 L 15.734375 18.378906 C 16.402344 18.15625 16.480469 17.636719 15.910156 17.226562 L 13.121094 15.222656 C 14.601562 13.957031 16.5 13.21875 18.554688 13.21875 C 23.175781 13.21875 26.9375 16.976562 26.9375 21.597656 C 26.9375 26.21875 23.175781 29.980469 18.554688 29.980469 C 14.679688 29.980469 11.253906 27.25 10.390625 23.484375 L 6.296875 24.863281 C 7.761719 30.355469 12.828125 34.296875 18.554688 34.296875 C 25.554688 34.296875 31.25 28.597656 31.25 21.597656 C 31.25 14.597656 25.554688 8.902344 18.554688 8.902344 Z M 18.554688 8.902344 " fill-opacity="1" fill-rule="nonzero"/></g></svg>