<svg xmlns="http://www.w3.org/2000/svg" xmlns:xlink="http://www.w3.org/1999/xlink" width="48" zoomAndPan="magnify" viewBox="0 0 36 36.000001" height="48" preserveAspectRatio="xMidYMid meet" version="1.0"><defs><clipPath id="aa45e75dcc"><path d="M 16.871094 20.414062 L 17.21875 20.414062 L 17.21875 20.6875 L 16.871094 20.6875 Z M 16.871094 20.414062 " clip-rule="nonzero"/></clipPath><clipPath id="0a62d7fde8"><path d="M 17.199219 20.578125 C 16.539062 20.871094 17.125 20.433594 17.125 20.433594 " clip-rule="nonzero"/></clipPath><clipPath id="bb208a5513"><path d="M 0.871094 0.414062 L 1.21875 0.414062 L 1.21875 0.6875 L 0.871094 0.6875 Z M 0.871094 0.414062 " clip-rule="nonzero"/></clipPath><clipPath id="6d90d041f7"><path d="M 1.199219 0.578125 C 0.539062 0.871094 1.125 0.433594 1.125 0.433594 " clip-rule="nonzero"/></clipPath><clipPath id="81f8c8eef1"><rect x="0" width="2" y="0" height="1"/></clipPath><clipPath id="88a18e03d7"><path d="M 15.339844 22.675781 L 15.683594 22.675781 L 15.683594 22.949219 L 15.339844 22.949219 Z M 15.339844 22.675781 " clip-rule="nonzero"/></clipPath><clipPath id="b08e147f5b"><path d="M 15.664062 22.839844 C 15.007812 23.132812 15.59375 22.695312 15.59375 22.695312 " clip-rule="nonzero"/></clipPath><clipPath id="58b5143d0f"><path d="M 0.339844 0.675781 L 0.664062 0.675781 L 0.664062 0.949219 L 0.339844 0.949219 Z M 0.339844 0.675781 " clip-rule="nonzero"/></clipPath><clipPath id="d84f86e19d"><path d="M 0.664062 0.839844 C 0.0078125 1.132812 0.59375 0.695312 0.59375 0.695312 " clip-rule="nonzero"/></clipPath><clipPath id="70277f73e2"><rect x="0" width="1" y="0" height="1"/></clipPath><clipPath id="f9fe0dc2d7"><path d="M 0.488281 17.332031 L 35.511719 17.332031 L 35.511719 31.195312 L 0.488281 31.195312 Z M 0.488281 17.332031 " clip-rule="nonzero"/></clipPath><clipPath id="45f37ed463"><path d="M 0.488281 0.386719 L 35.28125 0.386719 L 35.28125 14.195312 L 0.488281 14.195312 Z M 0.488281 0.386719 " clip-rule="nonzero"/></clipPath><clipPath id="ce512e0a3f"><rect x="0" width="36" y="0" height="15"/></clipPath></defs><g clip-path="url(#aa45e75dcc)"><g clip-path="url(#0a62d7fde8)"><g transform="matrix(1, 0, 0, 1, 16, 20)"><g clip-path="url(#81f8c8eef1)"><g clip-path="url(#bb208a5513)"><g clip-path="url(#6d90d041f7)"><rect x="-23.92" width="51.84" fill="#ffffff" height="51.840001" y="-27.92" fill-opacity="1"/></g></g></g></g></g></g><g clip-path="url(#88a18e03d7)"><g clip-path="url(#b08e147f5b)"><g transform="matrix(1, 0, 0, 1, 15, 22)"><g clip-path="url(#70277f73e2)"><g clip-path="url(#58b5143d0f)"><g clip-path="url(#d84f86e19d)"><rect x="-22.92" width="51.84" fill="#ffffff" height="51.840001" y="-29.92" fill-opacity="1"/></g></g></g></g></g></g><g clip-path="url(#f9fe0dc2d7)"><g transform="matrix(1, 0, 0, 1, 0.000000000000000056, 17)"><g clip-path="url(#ce512e0a3f)"><g clip-path="url(#45f37ed463)"><path fill="#ffffff" d="M 23.273438 7.039062 L 22.800781 7.792969 L 20.832031 10.929688 C 20.804688 10.972656 20.777344 11.011719 20.753906 11.054688 C 20.269531 11.820312 20.777344 12.789062 21.679688 12.828125 C 22.625 12.867188 23.574219 12.910156 24.523438 12.949219 C 25.628906 12.996094 26.734375 13.046875 27.835938 13.09375 C 27.941406 13.097656 28.046875 13.097656 28.152344 13.089844 C 30 12.933594 31.847656 12.773438 33.695312 12.617188 C 33.863281 12.601562 34.035156 12.585938 34.203125 12.570312 C 35.027344 12.492188 35.5 11.585938 35.082031 10.867188 C 34.820312 10.414062 34.53125 9.976562 34.253906 9.53125 C 33.65625 8.570312 33.058594 7.613281 32.460938 6.65625 L 30.574219 3.628906 C 30.09375 2.855469 29.609375 2.085938 29.128906 1.3125 C 29.078125 1.226562 29.023438 1.144531 28.96875 1.058594 C 28.515625 0.332031 27.464844 0.34375 27.019531 1.074219 C 26.609375 1.742188 26.1875 2.402344 25.769531 3.066406 C 25.75 3.097656 25.726562 3.121094 25.703125 3.15625 C 25.660156 3.140625 25.617188 3.121094 25.578125 3.101562 C 24.863281 2.75 24.152344 2.378906 23.429688 2.042969 C 22.058594 1.40625 20.644531 0.902344 19.152344 0.640625 C 17.9375 0.425781 16.71875 0.382812 15.492188 0.507812 C 13.871094 0.667969 12.324219 1.09375 10.824219 1.730469 C 9.820312 2.152344 8.878906 2.679688 7.976562 3.28125 C 7.445312 3.636719 6.917969 3.988281 6.40625 4.363281 C 5.824219 4.785156 5.269531 5.246094 4.742188 5.738281 C 4.328125 6.128906 3.910156 6.515625 3.507812 6.917969 C 2.878906 7.542969 2.308594 8.21875 1.789062 8.9375 C 1.582031 9.222656 1.351562 9.496094 1.132812 9.773438 C 0.941406 10.019531 0.765625 10.273438 0.664062 10.570312 C 0.5 11.0625 0.582031 11.515625 0.882812 11.933594 C 1.050781 12.167969 1.28125 12.339844 1.507812 12.511719 C 2.191406 13.027344 2.90625 13.496094 3.679688 13.863281 C 3.855469 13.949219 4.035156 14.027344 4.214844 14.097656 C 4.441406 14.1875 4.675781 14.234375 4.914062 14.242188 C 5.421875 14.253906 5.796875 14.019531 6.113281 13.660156 C 6.410156 13.316406 6.625 12.921875 6.851562 12.535156 C 7.40625 11.597656 8.089844 10.765625 8.902344 10.046875 C 10.347656 8.757812 11.988281 7.808594 13.835938 7.226562 C 14.933594 6.878906 16.050781 6.609375 17.179688 6.386719 C 17.773438 6.269531 18.371094 6.171875 18.972656 6.113281 C 20.332031 5.976562 21.621094 6.21875 22.84375 6.820312 C 22.980469 6.886719 23.117188 6.957031 23.273438 7.039062 Z M 23.273438 7.039062 " fill-opacity="1" fill-rule="nonzero"/></g></g></g></g></svg>